# xmcd
#
# Track frame offsets:
#	150
#	18157
#	29760
#	42130
#	54390
#	66142
#	77382
#	92247
#	104100
#	115060
#	127462
#	138452
#
# Disc length: 2000 seconds
#
# Revision: 0
# Processed by: cddbd v1.5.2PL0 Copyright (c) Steve Scherf et al.
# Submitted via: dBpowerAMP V4.0
#
DISCID=a707ce0c
DTITLE=Raphael - El golfo
DYEAR=1900
DGENRE=Soundtrack
TTITLE0=Ave María
TTITLE1=Cuando llega mi amor
TTITLE2=En Acapulco
TTITLE3=Será mejor
TTITLE4=El amor es triste "love is blue"
TTITLE5=Hava Naguila
TTITLE6=Que seas tú
TTITLE7=Me gusta pensar en tí "Goin' out my head"
TTITLE8=El golfo
TTITLE9=La primera piedra
TTITLE10=La bamba
TTITLE11=I Believe "Yo creo"
EXTD=
EXTT0=
EXTT1=
EXTT2=
EXTT3=
EXTT4=
EXTT5=
EXTT6=
EXTT7=
EXTT8=
EXTT9=
EXTT10=
EXTT11=
PLAYORDER=
